<svg id="Layer_1_1_" enable-background="new 0 0 64 64" height="512" viewBox="0 0 64 64" width="512" xmlns="http://www.w3.org/2000/svg"><g fill="#f5cba1"><path d="m24.298 37h3.405c.851 0 1.689-.214 2.436-.624l.861-.472 3.841-2.105c1.368-1.14 2.159-2.829 2.159-4.609v-8.19l-5-8h-12l-5 8v8.19c0 1.781.791 3.469 2.159 4.609l3.841 2.105.862.472c.747.41 1.584.624 2.436.624z"/><path d="m13.5 21c-1.381 0-2.5 1.119-2.5 2.5s1.119 2.5 2.5 2.5h1.5v-5z"/><path d="m38.5 26c1.381 0 2.5-1.119 2.5-2.5s-1.119-2.5-2.5-2.5h-1.5v5z"/></g><path d="m37 21v-8h-5z" fill="#c98f3e"/><path d="m31 46.929v-6.929-4.096l-.862.472c-.747.41-1.584.624-2.436.624h-3.405c-.851 0-1.689-.214-2.436-.624l-.861-.472v4.096 6.929c2.761 2.761 7.239 2.761 10 0z" fill="#f5cba1"/><path d="m37 13v-5c0-2.761-2.239-5-5-5h-19v5c0 2.761 2.239 5 5 5h2 12z" fill="#91672c"/><path d="m20 13h-2c-1.131 0-2.162-.39-3-1.023v9.023l5.091-8z" fill="#c98f3e"/><path d="m32 3h-19v2h19c2.761 0 5 2.239 5 5v-2c0-2.761-2.239-5-5-5z" fill="#a67632"/><path d="m30.462 42.486c.185-.151.365-.313.538-.486v-2-4.096l-.862.472c-.747.41-1.584.624-2.436.624h-3.405c-.851 0-1.689-.214-2.436-.624l-.861-.472v2.331c3.481.54 6.75 2.01 9.462 4.251z" fill="#d9b48e"/><path d="m26 46.21 7 3 3-8v-.154c-2.755-1.098-5-1.846-5-1.846v2z" fill="#eaca65"/><path d="m36 53.903 4-.516v-10.612c-1.329-.622-2.719-1.208-4-1.719v.154z" fill="#1a326e"/><path d="m33 49.21-7-3-7 3-3-8v15.274l20-2.581v-12.693z" fill="#eaca65"/><path d="m58.028 35.904-7.028-3.904-2-2 2-6s-7 2-7 8 4 7 5 10c.416 1.249.658 3.191.8 5.033.198 2.582.2 4.967.2 4.967h5s0-3 1-8 4-7 4-7z" fill="#9c9c9c"/><path d="m43 53 1-5 2.203-.367c-.071-.229-.139-.441-.203-.633-.432-1.297-3.061-2.849-6-4.225v10.612z" fill="#eaca65"/><path d="m58 7v-4h-7v4h1 5z" fill="#8a8a8a"/><path d="m19 49.21 7-3-5-5v-2s-2.245.748-5 1.846v.154z" fill="#eaca65"/><path d="m16 56.484v-15.274-.154c-1.281.51-2.671 1.096-4 1.719v14.225z" fill="#1a326e"/><path d="m47 17c5.523 0 10-4.477 10-10h-5c0 2.761-2.239 5-5 5h-1v5z" fill="#606060"/><path d="m57 26-2 5-4 1 7.028 3.904c1.935-5.945-1.028-9.904-1.028-9.904z" fill="#8a8a8a"/><path d="m46 18v-1-5-1h-4v7z" fill="#8a8a8a"/><path d="m59.222 21c4 0 0-8 0-8s-4 8 0 8z" fill="#46afda"/><path d="m51 42c-1-3-5-4-5-10 0-3.675 2.624-5.845 4.659-6.978l.341-1.022s-7 2-7 8 4 7 5 10c.416 1.249.658 3.191.8 5.033.198 2.582.2 4.967.2 4.967h2s-.002-2.385-.2-4.967c-.142-1.842-.384-3.784-.8-5.033z" fill="#b3b3b3"/><path d="m57 52h-2-5s-.002-2.385-.2-4.967l-3.597.599-2.203.368-1 5-3 .387-4 .516-15 1.935v5.162h36c1.105 0 2-.895 2-2v-5c0-1.105-.895-2-2-2z" fill="#f5cba1"/><path d="m21 55.839-5 .645-4 .516v-14.225c-2.939 1.376-5.568 2.928-6 4.225-1 3-3 11-3 11v3h18z" fill="#eaca65"/><path d="m21 25.75c-.965 0-1.75-.785-1.75-1.75s.785-1.75 1.75-1.75 1.75.785 1.75 1.75-.785 1.75-1.75 1.75zm0-2c-.138 0-.25.112-.25.25 0 .275.5.275.5 0 0-.138-.112-.25-.25-.25z"/><path d="m31 25.75c-.965 0-1.75-.785-1.75-1.75s.785-1.75 1.75-1.75 1.75.785 1.75 1.75-.785 1.75-1.75 1.75zm0-2c-.138 0-.25.112-.25.25 0 .275.5.275.5 0 0-.138-.112-.25-.25-.25z"/><path d="m26 33.75c-2.067 0-3.75-1.683-3.75-3.75h1.5c0 1.24 1.01 2.25 2.25 2.25s2.25-1.01 2.25-2.25h1.5c0 2.067-1.683 3.75-3.75 3.75z"/><path d="m60.485 36.126-1.277-.709c1.577-5.921-1.28-9.845-1.409-10.016-.217-.289-.566-.441-.931-.392-.358.047-.663.284-.798.62l-1.81 4.525-2.955.739-1.163-1.163 1.804-5.413c.118-.353.03-.74-.226-1.008-.257-.269-.645-.37-.997-.271-.313.091-7.723 2.284-7.723 8.962 0 4.226 1.852 6.253 3.339 7.883.762.833 1.419 1.554 1.713 2.434.322.967.533 2.407.674 3.882l-1.851.309c-1.35-3.117-10.958-6.677-14.875-8.015v-1.997l3.321-1.82c.057-.031.11-.067.159-.108 1.602-1.334 2.52-3.294 2.52-5.378v-2.19h.5c1.93 0 3.5-1.57 3.5-3.5s-1.57-3.5-3.5-3.5h-.5v-7-5c0-3.309-2.691-6-6-6h-19c-.553 0-1 .447-1 1v5c0 1.771.776 3.36 2 4.46v7.54h-.5c-1.93 0-3.5 1.57-3.5 3.5s1.57 3.5 3.5 3.5h.5v2.189c0 2.084.918 4.044 2.52 5.378.049.041.103.077.159.108l3.321 1.821v1.997c-3.991 1.363-13.897 5.033-14.948 8.191-1.001 3.002-2.94 10.746-3.022 11.074-.02.079-.03.16-.03.242v3c0 .553.447 1 1 1h54c1.654 0 3-1.346 3-3v-5c0-1.654-1.346-3-3-3h-.957c.078-1.248.3-3.613.938-6.804.897-4.488 3.47-6.293 3.574-6.364.29-.193.459-.524.444-.872-.014-.349-.209-.665-.514-.834zm-5.243-4.156c.312-.077.567-.3.687-.599l1.178-2.944c.484 1.361.868 3.425.295 5.986l-3.702-2.057zm-10.486 14.89-.92.153c-.41.068-.735.383-.816.79l-.86 4.297-1.16.149v-7.867c1.81.926 3.17 1.794 3.756 2.478zm-27.756 8.486v-8.62l1.063 2.836c.096.256.293.461.544.568.25.107.536.106.786-.001l6.607-2.83 6.606 2.831c.125.054.26.081.394.081s.268-.026.393-.08c.251-.107.448-.313.544-.568l1.063-2.836v6.297zm-4-11.93c.639-.293 1.311-.586 2-.877v13.065l-2 .258zm9-5.873c.728.297 1.509.457 2.298.457h3.404c.788 0 1.57-.16 2.298-.457v3.254l-4 4-4-4zm15 4.996c.689.291 1.361.584 2 .877v9.091l-2 .258zm-2.229-.901-2.34 6.241-4.68-2.005 3.956-3.956c.188-.188.293-.441.293-.707v-.6c.925.325 1.854.671 2.771 1.027zm1.229-24.125-2.196-3.513h2.196zm4 5.987c0 .827-.673 1.5-1.5 1.5h-.5v-3h.5c.827 0 1.5.673 1.5 1.5zm-26-19.5h18c2.206 0 4 1.794 4 4v4h-18c-2.206 0-4-1.794-4-4zm4 10h.196l-2.196 3.513v-3.863c.627.222 1.298.35 2 .35zm-4.5 11c-.827 0-1.5-.673-1.5-1.5s.673-1.5 1.5-1.5h.5v3zm2.5 4.189v-7.903l4.554-7.286h10.892l4.554 7.287v7.902c0 1.458-.629 2.83-1.729 3.781l-4.614 2.528c-.597.329-1.273.502-1.955.502h-3.404c-.682 0-1.357-.173-1.955-.501l-4.614-2.528c-1.1-.951-1.729-2.324-1.729-3.782zm4.293 12.729 3.956 3.956-4.68 2.005-2.34-6.241c.917-.356 1.846-.702 2.771-1.027v.6c0 .266.105.519.293.707zm-16.293 16.206c.253-1.006 2.038-8.075 2.948-10.808.243-.728 1.816-1.79 4.052-2.934v12.618c0 .287.124.562.34.751.183.161.419.249.66.249.043 0 .085-.003.128-.008l7.747-1v3.008h-15.875zm54-4.124v5c0 .552-.448 1-1 1h-35.125v-3.266l21.253-2.742c.426-.056.769-.375.853-.796l.865-4.323 4.032-.672c.064 1.105.094 2.101.109 2.799h-1.987v2h10c.552 0 1 .448 1 1zm-2.98-10.196c-.683 3.416-.908 5.905-.982 7.196h-3.049c-.04-2.077-.221-6.863-1.04-9.316-.427-1.282-1.294-2.231-2.132-3.149-1.385-1.517-2.817-3.085-2.817-6.535 0-3.333 2.511-5.266 4.358-6.236l-1.307 3.92c-.12.359-.026.756.241 1.023l2 2c.065.065.141.122.222.167l7.773 4.318c-1.071 1.132-2.596 3.249-3.267 6.612z"/><path d="m51.5 34.585h2v5.831h-2z" transform="matrix(.515 -.858 .858 .515 -6.667 63.225)"/><path d="m41 9v11h2v-1h3c.553 0 1-.447 1-1 5.728 0 10.442-4.402 10.949-10h.051c.553 0 1-.447 1-1v-3h1v-2h-11v2h1v3c0 .505.38.905.866.973-.437 1.735-1.997 3.027-3.866 3.027 0-.553-.447-1-1-1h-3v-1zm16-5v2h-5v-2zm-4.09 4h3.031c-.499 4.493-4.316 8-8.941 8v-3c2.967 0 5.431-2.167 5.91-5zm-7.91 4v5h-2v-5z"/><path d="m58.328 12.553c-.487.976-2.849 5.959-1.421 8.27.332.536 1.004 1.177 2.316 1.177s1.983-.641 2.315-1.178c1.428-2.311-.934-7.294-1.421-8.27-.34-.677-1.449-.677-1.789.001zm1.509 7.218c-.043.068-.143.229-.614.229s-.571-.161-.614-.229c-.404-.654-.05-2.43.614-4.242.664 1.812 1.018 3.587.614 4.242z"/></svg>